# xmcd
#
# Track frame offsets:
#	150
#	18070
#	33555
#	44730
#	64167
#	79437
#	96207
#	109767
#
# Disc length: 1697 seconds
#
# Revision: 3
# Processed by: cddbd v1.5.2PL0 Copyright (c) Steve Scherf et al.
# Submitted via: audiograbber 1.83.01
#
DISCID=67069f08
DTITLE=The Judds - Wynonna and Naomi
DYEAR=1990
DGENRE=Country
TTITLE0=Love Is Alive
TTITLE1=Isn't He A Strange One
TTITLE2=Sleepless Nights
TTITLE3=Water Of Love
TTITLE4=Have Mercy
TTITLE5=Cry Myself To Sleep
TTITLE6=I Wish She Wouldn't Treat You That Way
TTITLE7=Tears For You
EXTD=
EXTT0=
EXTT1=
EXTT2=
EXTT3=
EXTT4=
EXTT5=
EXTT6=
EXTT7=
PLAYORDER=
